<svg xmlns="http://www.w3.org/2000/svg" height="224" width="224">
  <defs>
     <linearGradient id="redGreen" gradientTransform="rotate(90)">
      <stop stop-color="#e89593" offset="0%" />
      <stop stop-color="#d9534f" offset="33%" />
      <stop stop-color="#64c664" offset="33%" />
      <stop stop-color="#1e7d1e" offset="100%" />
    </linearGradient>
  </defs>
  <rect fill="url(#redGreen)" rx="48" ry="48" height="224" width="224"/>
  <path fill="white" d="M 90.156,0 V 31.53 H 48.652 V 64 H 176.094 V 31.53 H 134.59 V 0 Z m 20.961,86.453 c -9.928,0 -20.06,0.937 -30.394,2.809 -10.336,1.79 -20.794,4.434 -31.373,7.933 v 40.04 c 9.928,-6.185 19.247,-10.824 27.955,-13.916 8.707,-3.174 16.722,-4.76 24.047,-4.76 9.521,0 17.131,2.604 22.828,7.812 5.778,5.209 8.666,12.084 8.666,20.63 0,5.533 -1.423,10.864 -4.272,15.991 -2.848,5.127 -7.243,10.375 -13.183,15.746 L 64.107,224 h 52.329 l 23.61,-20.724 c 16.44,-14.405 27.224,-25.88 32.35,-34.424 5.127,-8.627 7.69,-17.904 7.69,-27.832 0,-17.172 -6.062,-30.56 -18.188,-40.162 -12.044,-9.603 -28.97,-14.405 -50.78,-14.405 z"/>
</svg>
